{
	"asset":{
		"generator":"Khronos glTF Blender I/O v5.2.39",
		"version":"2.0"
	},
	"scene":0,
	"scenes":[
		{
			"name":"Export",
			"nodes":[
				2,
				5,
				8,
				11,
				14,
				17,
				20,
				23,
				26,
				29,
				32,
				35,
				38,
				41,
				44,
				47,
				50,
				53,
				56,
				59,
				62,
				65,
				68,
				71,
				74,
				77,
				80,
				83,
				84,
				85,
				88,
				91,
				94,
				99,
				104,
				109,
				114,
				119,
				124,
				129,
				130,
				133,
				138,
				143,
				147,
				153,
				156
			]
		}
	],
	"nodes":[
		{
			"mesh":0,
			"name":"Fence.004"
		},
		{
			"mesh":1,
			"name":"Fence_collider"
		},
		{
			"children":[
				0,
				1
			],
			"name":"Fence.001",
			"rotation":[
				0,
				-0.9975388646125793,
				0,
				0.07011552155017853
			],
			"translation":[
				-9.90060043334961,
				1,
				-22.046205520629883
			]
		},
		{
			"mesh":0,
			"name":"Fence.004"
		},
		{
			"mesh":1,
			"name":"Fence_collider"
		},
		{
			"children":[
				3,
				4
			],
			"name":"Fence.002",
			"rotation":[
				0,
				-0.9998123645782471,
				0,
				0.019370373338460922
			],
			"translation":[
				-7.455427646636963,
				1,
				-22.33362579345703
			]
		},
		{
			"mesh":0,
			"name":"Fence.004"
		},
		{
			"mesh":1,
			"name":"Fence_collider"
		},
		{
			"children":[
				6,
				7
			],
			"name":"Fence.003",
			"rotation":[
				0,
				-0.9983057379722595,
				0,
				0.05818687006831169
			],
			"translation":[
				-4.925406455993652,
				1,
				-22.572622299194336
			]
		},
		{
			"mesh":0,
			"name":"Fence.004"
		},
		{
			"mesh":1,
			"name":"Fence_collider"
		},
		{
			"children":[
				9,
				10
			],
			"name":"Fence.005",
			"rotation":[
				0,
				-0.7016406655311584,
				0,
				0.7125310301780701
			],
			"translation":[
				19.51185417175293,
				1,
				-7.25290060043335
			]
		},
		{
			"mesh":0,
			"name":"Fence.004"
		},
		{
			"mesh":1,
			"name":"Fence_collider"
		},
		{
			"children":[
				12,
				13
			],
			"name":"Fence.006",
			"rotation":[
				0,
				-0.7369174361228943,
				0,
				0.6759827733039856
			],
			"translation":[
				19.53139305114746,
				1,
				-9.714827537536621
			]
		},
		{
			"mesh":0,
			"name":"Fence.004"
		},
		{
			"mesh":1,
			"name":"Fence_collider"
		},
		{
			"children":[
				15,
				16
			],
			"name":"Fence.007",
			"rotation":[
				0,
				-0.7369174361228943,
				0,
				0.6759827733039856
			],
			"translation":[
				19.51185417175293,
				1,
				-9.63667106628418
			]
		},
		{
			"mesh":0,
			"name":"Fence.004"
		},
		{
			"mesh":1,
			"name":"Fence_collider"
		},
		{
			"children":[
				18,
				19
			],
			"name":"Fence.008",
			"rotation":[
				0,
				-0.7101075053215027,
				0,
				0.7040932774543762
			],
			"translation":[
				19.609548568725586,
				1,
				-12.254910469055176
			]
		},
		{
			"mesh":0,
			"name":"Fence.004"
		},
		{
			"mesh":1,
			"name":"Fence_collider"
		},
		{
			"children":[
				21,
				22
			],
			"name":"Fence.009",
			"rotation":[
				0,
				-0.7169848680496216,
				0,
				0.6970887780189514
			],
			"translation":[
				19.68770408630371,
				1,
				-14.677760124206543
			]
		},
		{
			"mesh":0,
			"name":"Fence.004"
		},
		{
			"mesh":1,
			"name":"Fence_collider"
		},
		{
			"children":[
				24,
				25
			],
			"name":"Fence.010",
			"rotation":[
				0,
				-0.7101075053215027,
				0,
				0.7040932774543762
			],
			"translation":[
				19.824478149414062,
				1,
				-17.256921768188477
			]
		},
		{
			"mesh":0,
			"name":"Fence.004"
		},
		{
			"mesh":1,
			"name":"Fence_collider"
		},
		{
			"children":[
				27,
				28
			],
			"name":"Fence.011",
			"rotation":[
				0,
				-0.711243212223053,
				0,
				0.7029460072517395
			],
			"translation":[
				19.902633666992188,
				1,
				-19.953317642211914
			]
		},
		{
			"mesh":0,
			"name":"Fence.004"
		},
		{
			"mesh":1,
			"name":"Fence_collider"
		},
		{
			"children":[
				30,
				31
			],
			"name":"Fence.012",
			"rotation":[
				0,
				-0.7492333054542542,
				0,
				0.6623061895370483
			],
			"translation":[
				20.137102127075195,
				1,
				-22.33708953857422
			]
		},
		{
			"mesh":0,
			"name":"Fence.004"
		},
		{
			"mesh":1,
			"name":"Fence_collider"
		},
		{
			"children":[
				33,
				34
			],
			"name":"Fence.013",
			"rotation":[
				0,
				-0.6858396530151367,
				0,
				0.727752685546875
			],
			"translation":[
				19.868696212768555,
				1,
				20.747068405151367
			]
		},
		{
			"mesh":0,
			"name":"Fence.004",
			"translation":[
				-2.86102294921875e-06,
				0,
				0
			]
		},
		{
			"mesh":1,
			"name":"Fence_collider",
			"translation":[
				-2.86102294921875e-06,
				0,
				0
			]
		},
		{
			"children":[
				36,
				37
			],
			"name":"Fence.014",
			"rotation":[
				0,
				-0.721909761428833,
				0,
				0.6919872760772705
			],
			"translation":[
				19.78021812438965,
				1,
				18.286651611328125
			]
		},
		{
			"mesh":0,
			"name":"Fence.004"
		},
		{
			"mesh":1,
			"name":"Fence_collider"
		},
		{
			"children":[
				39,
				40
			],
			"name":"Fence.015",
			"rotation":[
				0,
				-0.6944895386695862,
				0,
				0.719502866268158
			],
			"translation":[
				19.74687385559082,
				1,
				15.745586395263672
			]
		},
		{
			"mesh":0,
			"name":"Fence.004"
		},
		{
			"mesh":1,
			"name":"Fence_collider"
		},
		{
			"children":[
				42,
				43
			],
			"name":"Fence.016",
			"rotation":[
				0,
				-0.6852246522903442,
				0,
				0.7283318042755127
			],
			"translation":[
				19.779712677001953,
				1,
				13.20915699005127
			]
		},
		{
			"mesh":0,
			"name":"Fence.004"
		},
		{
			"mesh":1,
			"name":"Fence_collider"
		},
		{
			"children":[
				45,
				46
			],
			"name":"Fence.017",
			"rotation":[
				0,
				-0.6780421137809753,
				0,
				0.7350230813026428
			],
			"translation":[
				19.686416625976562,
				1,
				10.628057479858398
			]
		},
		{
			"mesh":0,
			"name":"Fence.004"
		},
		{
			"mesh":1,
			"name":"Fence_collider"
		},
		{
			"children":[
				48,
				49
			],
			"name":"Fence.018",
			"rotation":[
				0,
				-0.6792277693748474,
				0,
				0.7339275479316711
			],
			"translation":[
				19.524303436279297,
				1,
				7.935404300689697
			]
		},
		{
			"mesh":0,
			"name":"Fence.004"
		},
		{
			"mesh":1,
			"name":"Fence_collider"
		},
		{
			"children":[
				51,
				52
			],
			"name":"Fence.019",
			"rotation":[
				0,
				-0.7189902663230896,
				0,
				0.6950201392173767
			],
			"translation":[
				19.54570198059082,
				1,
				5.540224552154541
			]
		},
		{
			"mesh":0,
			"name":"Fence.004"
		},
		{
			"mesh":1,
			"name":"Fence_collider"
		},
		{
			"children":[
				54,
				55
			],
			"name":"Fence.020",
			"rotation":[
				0,
				-0.7591532468795776,
				0,
				0.6509119868278503
			],
			"translation":[
				19.625598907470703,
				1,
				25.811603546142578
			]
		},
		{
			"mesh":0,
			"name":"Fence.004"
		},
		{
			"mesh":1,
			"name":"Fence_collider"
		},
		{
			"children":[
				57,
				58
			],
			"name":"Fence.021",
			"rotation":[
				0,
				-0.721909761428833,
				0,
				0.6919872760772705
			],
			"translation":[
				19.82073402404785,
				1,
				23.270156860351562
			]
		},
		{
			"mesh":0,
			"name":"Fence.004"
		},
		{
			"mesh":1,
			"name":"Fence_collider"
		},
		{
			"children":[
				60,
				61
			],
			"name":"Fence.022",
			"rotation":[
				0,
				-0.9974793195724487,
				0,
				0.07095813006162643
			],
			"translation":[
				-2.394646644592285,
				1,
				-22.745281219482422
			]
		},
		{
			"mesh":0,
			"name":"Fence.004"
		},
		{
			"mesh":1,
			"name":"Fence_collider"
		},
		{
			"children":[
				63,
				64
			],
			"name":"Fence.023",
			"rotation":[
				0,
				-0.9967346787452698,
				0,
				0.08074633777141571
			],
			"translation":[
				0.17042076587677002,
				1,
				-23.04727554321289
			]
		},
		{
			"mesh":0,
			"name":"Fence.004"
		},
		{
			"mesh":1,
			"name":"Fence_collider"
		},
		{
			"children":[
				66,
				67
			],
			"name":"Fence.024",
			"rotation":[
				0,
				-0.9968637228012085,
				0,
				0.07913718372583389
			],
			"translation":[
				2.8411049842834473,
				1,
				-23.426895141601562
			]
		},
		{
			"mesh":0,
			"name":"Fence.004"
		},
		{
			"mesh":1,
			"name":"Fence_collider"
		},
		{
			"children":[
				69,
				70
			],
			"name":"Fence.025",
			"rotation":[
				0,
				-0.9997220635414124,
				0,
				0.02357916161417961
			],
			"translation":[
				5.230149745941162,
				1,
				-23.599515914916992
			]
		},
		{
			"mesh":0,
			"name":"Fence.004"
		},
		{
			"mesh":1,
			"name":"Fence_collider"
		},
		{
			"children":[
				72,
				73
			],
			"name":"Fence.026",
			"rotation":[
				0,
				0.9993492364883423,
				0,
				0.036073774099349976
			],
			"translation":[
				-14.968189239501953,
				1,
				-21.87840461730957
			]
		},
		{
			"mesh":0,
			"name":"Fence.004"
		},
		{
			"mesh":1,
			"name":"Fence_collider"
		},
		{
			"children":[
				75,
				76
			],
			"name":"Fence.027",
			"rotation":[
				0,
				-0.9998123645782471,
				0,
				0.019370373338460922
			],
			"translation":[
				-12.419286727905273,
				1,
				-21.88970184326172
			]
		},
		{
			"mesh":2,
			"name":"Fence_border",
			"scale":[
				2.5,
				2.5,
				2.5
			]
		},
		{
			"mesh":3,
			"name":"Fence_collider.001",
			"scale":[
				2.5,
				2.5,
				2.5
			]
		},
		{
			"children":[
				78,
				79
			],
			"name":"Fence_Border",
			"translation":[
				19.546241760253906,
				1.0020743608474731,
				-5.516999244689941
			]
		},
		{
			"mesh":2,
			"name":"Fence_border",
			"scale":[
				2.5,
				2.5,
				2.5
			]
		},
		{
			"mesh":3,
			"name":"Fence_collider.001",
			"scale":[
				2.5,
				2.5,
				2.5
			]
		},
		{
			"children":[
				81,
				82
			],
			"name":"Fence_Border.001",
			"translation":[
				19.546241760253906,
				1.0020743608474731,
				3.685917854309082
			]
		},
		{
			"mesh":4,
			"name":"Floor.001"
		},
		{
			"mesh":5,
			"name":"Floor.002_collider"
		},
		{
			"mesh":6,
			"name":"GN_Grass",
			"rotation":[
				0,
				0.7071068286895752,
				0,
				0.7071067094802856
			],
			"translation":[
				0,
				1,
				0
			]
		},
		{
			"mesh":7,
			"name":"GN_Grass.001",
			"rotation":[
				0,
				0.7071068286895752,
				0,
				0.7071067094802856
			],
			"translation":[
				0,
				1,
				0
			]
		},
		{
			"children":[
				86,
				87
			],
			"name":"Grass"
		},
		{
			"mesh":8,
			"name":"Lajas.002",
			"scale":[
				0.4392659664154053,
				0.4392659664154053,
				0.4392659664154053
			]
		},
		{
			"mesh":9,
			"name":"Lajas_collider",
			"scale":[
				0.4392659664154053,
				0.4392659664154053,
				0.4392659664154053
			]
		},
		{
			"children":[
				89,
				90
			],
			"name":"Lajas",
			"translation":[
				0.5138893127441406,
				0.9999980926513672,
				7.2895660400390625
			]
		},
		{
			"mesh":8,
			"name":"Lajas.002",
			"scale":[
				0.4392659664154053,
				0.4392659664154053,
				0.4392659664154053
			]
		},
		{
			"mesh":9,
			"name":"Lajas_collider",
			"scale":[
				0.4392659664154053,
				0.4392659664154053,
				0.4392659664154053
			]
		},
		{
			"children":[
				92,
				93
			],
			"name":"Lajas.001",
			"rotation":[
				0,
				-0.7071068286895752,
				0,
				0.7071068286895752
			],
			"translation":[
				6.832900047302246,
				0.9999980926513672,
				-9.944096565246582
			]
		},
		{
			"mesh":10,
			"name":"Cube.004",
			"scale":[
				0.30000007152557373,
				0.30000007152557373,
				0.30000007152557373
			]
		},
		{
			"mesh":11,
			"name":"Cube.005",
			"scale":[
				0.30000007152557373,
				0.30000007152557373,
				0.30000007152557373
			]
		},
		{
			"mesh":12,
			"name":"Plane.010",
			"scale":[
				1.5,
				1.5,
				1.5
			]
		},
		{
			"mesh":13,
			"name":"Text.001",
			"rotation":[
				0.7071068286895752,
				0,
				0,
				0.7071068286895752
			],
			"translation":[
				0,
				6.890476226806641,
				0.13622665405273438
			]
		},
		{
			"children":[
				95,
				96,
				97,
				98
			],
			"name":"Leaderboard",
			"translation":[
				-4.421056747436523,
				1,
				-14.173868179321289
			]
		},
		{
			"mesh":14,
			"name":"Cube.008",
			"scale":[
				0.30000007152557373,
				0.30000007152557373,
				0.30000007152557373
			]
		},
		{
			"mesh":15,
			"name":"Cube.009",
			"scale":[
				0.30000007152557373,
				0.30000007152557373,
				0.30000007152557373
			]
		},
		{
			"mesh":16,
			"name":"Plane.006",
			"scale":[
				1.5,
				1.5,
				1.5
			]
		},
		{
			"mesh":17,
			"name":"Text.002",
			"rotation":[
				0.7071068286895752,
				0,
				0,
				0.7071068286895752
			],
			"translation":[
				0,
				6.890476226806641,
				0.13622665405273438
			]
		},
		{
			"children":[
				100,
				101,
				102,
				103
			],
			"name":"Leaderboard.001",
			"translation":[
				2.090259552001953,
				1,
				-14.173868179321289
			]
		},
		{
			"mesh":18,
			"name":"Cube.001"
		},
		{
			"mesh":19,
			"name":"Cube.002"
		},
		{
			"mesh":20,
			"name":"Cube.003"
		},
		{
			"mesh":21,
			"name":"mesa_collider",
			"scale":[
				1.3178448677062988,
				1.3178448677062988,
				1.3178448677062988
			]
		},
		{
			"children":[
				105,
				106,
				107,
				108
			],
			"name":"Mesa",
			"rotation":[
				0,
				0.702033281326294,
				0,
				0.712144136428833
			],
			"translation":[
				-7.460361957550049,
				1.0250005722045898,
				2.347160816192627
			]
		},
		{
			"mesh":18,
			"name":"Cube.001"
		},
		{
			"mesh":19,
			"name":"Cube.002"
		},
		{
			"mesh":22,
			"name":"Cube.003"
		},
		{
			"mesh":21,
			"name":"mesa_collider",
			"scale":[
				1.3178449869155884,
				1.3178448677062988,
				1.3178449869155884
			]
		},
		{
			"children":[
				110,
				111,
				112,
				113
			],
			"name":"Mesa.001",
			"rotation":[
				0,
				-0.0024289414286613464,
				0,
				0.9999971389770508
			],
			"translation":[
				-8.853137016296387,
				1.0250005722045898,
				-9.011394500732422
			]
		},
		{
			"mesh":18,
			"name":"Cube.001"
		},
		{
			"mesh":19,
			"name":"Cube.002"
		},
		{
			"mesh":23,
			"name":"Cube.003"
		},
		{
			"mesh":21,
			"name":"mesa_collider",
			"scale":[
				1.3178449869155884,
				1.3178448677062988,
				1.3178449869155884
			]
		},
		{
			"children":[
				115,
				116,
				117,
				118
			],
			"name":"Mesa.002",
			"rotation":[
				0,
				-0.8439661860466003,
				0,
				0.5363963842391968
			],
			"translation":[
				8.45352554321289,
				1.0250005722045898,
				5.870384216308594
			]
		},
		{
			"mesh":18,
			"name":"Cube.001"
		},
		{
			"mesh":19,
			"name":"Cube.002"
		},
		{
			"mesh":24,
			"name":"Cube.003"
		},
		{
			"mesh":21,
			"name":"mesa_collider",
			"scale":[
				1.3178448677062988,
				1.3178448677062988,
				1.3178448677062988
			]
		},
		{
			"children":[
				120,
				121,
				122,
				123
			],
			"name":"Mesa.003",
			"rotation":[
				0,
				0.01878168061375618,
				0,
				0.9998236298561096
			],
			"translation":[
				0.6111935973167419,
				1.0250005722045898,
				6.819248199462891
			]
		},
		{
			"mesh":18,
			"name":"Cube.001"
		},
		{
			"mesh":19,
			"name":"Cube.002"
		},
		{
			"mesh":25,
			"name":"Cube.003"
		},
		{
			"mesh":21,
			"name":"mesa_collider",
			"scale":[
				1.3178448677062988,
				1.3178448677062988,
				1.3178448677062988
			]
		},
		{
			"children":[
				125,
				126,
				127,
				128
			],
			"name":"Mesa.004",
			"rotation":[
				0,
				-0.7125289440155029,
				0,
				0.7016427516937256
			],
			"translation":[
				8.69769287109375,
				1.0250005722045898,
				-10.803396224975586
			]
		},
		{
			"mesh":26,
			"name":"Retopo_environment_rocks_collider.001",
			"scale":[
				100,
				100,
				100
			],
			"translation":[
				0,
				-60.901344299316406,
				0
			]
		},
		{
			"mesh":27,
			"name":"spawner"
		},
		{
			"mesh":28,
			"name":"spawner_collider"
		},
		{
			"children":[
				131,
				132
			],
			"name":"Spawner",
			"translation":[
				25.648670196533203,
				1,
				-0.9409523010253906
			]
		},
		{
			"mesh":29,
			"name":"Cube.010"
		},
		{
			"mesh":30,
			"name":"Plane.008"
		},
		{
			"mesh":31,
			"name":"Plane.009"
		},
		{
			"mesh":32,
			"name":"temp_collider"
		},
		{
			"children":[
				134,
				135,
				136,
				137
			],
			"name":"stairway_1m",
			"translation":[
				-0.03283572196960449,
				0.025000572204589844,
				-5.278209209442139
			]
		},
		{
			"mesh":33,
			"name":"Cube.010"
		},
		{
			"mesh":30,
			"name":"Plane.008"
		},
		{
			"mesh":31,
			"name":"Plane.009"
		},
		{
			"mesh":32,
			"name":"temp_collider"
		},
		{
			"children":[
				139,
				140,
				141,
				142
			],
			"name":"stairway_1m.002",
			"rotation":[
				0,
				0.9078558683395386,
				0,
				0.41928237676620483
			],
			"translation":[
				-4.095560550689697,
				0.025000572204589844,
				4.0080180168151855
			]
		},
		{
			"mesh":34,
			"name":"Cube.006",
			"translation":[
				1.936838150024414,
				0.09649455547332764,
				0
			]
		},
		{
			"mesh":35,
			"name":"Plane.006_collider"
		},
		{
			"mesh":36,
			"name":"Plane.011"
		},
		{
			"children":[
				144,
				145,
				146
			],
			"name":"Tent",
			"rotation":[
				0,
				-0.28420597314834595,
				0,
				0.9587632417678833
			],
			"translation":[
				-7.65303373336792,
				1.0964946746826172,
				-2.7950897216796875
			]
		},
		{
			"mesh":37,
			"name":"Cylinder",
			"rotation":[
				0.0007209046743810177,
				0.012612816877663136,
				-0.08841129392385483,
				0.9960039258003235
			],
			"translation":[
				-0.016131997108459473,
				0.14694419503211975,
				0
			]
		},
		{
			"mesh":38,
			"name":"Cylinder.001",
			"rotation":[
				0.00504330126568675,
				-0.013772762380540371,
				-0.33312323689460754,
				0.9427692294120789
			],
			"translation":[
				0.292167067527771,
				0.14411576092243195,
				0
			]
		},
		{
			"mesh":39,
			"name":"Cylinder.002",
			"rotation":[
				0.004578388761729002,
				-0.013246504589915276,
				-0.3712177574634552,
				0.9284400343894958
			],
			"translation":[
				-0.3131171464920044,
				0.1610863357782364,
				0
			]
		},
		{
			"mesh":40,
			"name":"Cylinder.003",
			"rotation":[
				0.003848602995276451,
				-0.00962560623884201,
				-0.37123429775238037,
				0.9284814596176147
			],
			"translation":[
				-0.18018090724945068,
				0.3817039132118225,
				0.0028284788131713867
			]
		},
		{
			"mesh":41,
			"name":"Cylinder.004",
			"rotation":[
				-0.0023813326843082905,
				0.0059558614157140255,
				-0.3712465763092041,
				0.9285122752189636
			],
			"translation":[
				0.1252896785736084,
				0.36473333835601807,
				0
			]
		},
		{
			"children":[
				148,
				149,
				150,
				151,
				152
			],
			"name":"Truncs",
			"rotation":[
				0,
				-0.917714536190033,
				0,
				0.397240549325943
			],
			"translation":[
				2.5463171005249023,
				0,
				-2.3871989250183105
			]
		},
		{
			"mesh":42,
			"name":"welcome"
		},
		{
			"mesh":43,
			"name":"welcome_collider"
		},
		{
			"children":[
				154,
				155
			],
			"name":"Welcome",
			"rotation":[
				0,
				0.7066900134086609,
				0,
				0.7075234055519104
			],
			"translation":[
				18.506412506103516,
				1.0000014305114746,
				-0.8692083358764648
			]
		}
	],
	"materials":[
		{
			"doubleSided":true,
			"name":"tripo_mat_9b91b75e-e583-405e-b96c-468b79b5b5e8",
			"pbrMetallicRoughness":{
				"baseColorTexture":{
					"index":0
				},
				"metallicFactor":0,
				"roughnessFactor":0.8999999761581421
			}
		},
		{
			"doubleSided":true,
			"name":"tripo_mat_9b91b75e-e583-405e-b96c-468b79b5b5e8.001",
			"pbrMetallicRoughness":{
				"baseColorTexture":{
					"index":1
				},
				"metallicFactor":0,
				"roughnessFactor":0.8999999761581421
			}
		},
		{
			"doubleSided":true,
			"name":"Material.002",
			"pbrMetallicRoughness":{
				"baseColorTexture":{
					"index":2
				},
				"metallicFactor":0
			}
		},
		{
			"doubleSided":true,
			"name":"Collider",
			"pbrMetallicRoughness":{
				"baseColorFactor":[
					1,
					0,
					0.5615979433059692,
					1
				],
				"metallicFactor":0,
				"roughnessFactor":0.5
			}
		},
		{
			"alphaMode":"BLEND",
			"doubleSided":true,
			"name":"Grass_mat",
			"pbrMetallicRoughness":{
				"baseColorTexture":{
					"index":3
				},
				"metallicFactor":0
			}
		},
		{
			"doubleSided":true,
			"name":"Lajas",
			"pbrMetallicRoughness":{
				"baseColorTexture":{
					"index":4
				},
				"metallicFactor":0
			}
		},
		{
			"doubleSided":true,
			"name":"Madera",
			"pbrMetallicRoughness":{
				"baseColorTexture":{
					"index":5
				},
				"metallicFactor":0
			}
		},
		{
			"doubleSided":true,
			"name":"Madera_black",
			"pbrMetallicRoughness":{
				"baseColorFactor":[
					0.021546831354498863,
					0.005742586217820644,
					0.00389692559838295,
					1
				],
				"metallicFactor":0
			}
		},
		{
			"doubleSided":true,
			"name":"Emission",
			"pbrMetallicRoughness":{
				"baseColorFactor":[
					0.800000011920929,
					0.800000011920929,
					0.800000011920929,
					1
				],
				"metallicFactor":0,
				"roughnessFactor":0.5
			}
		},
		{
			"doubleSided":true,
			"name":"Wood",
			"pbrMetallicRoughness":{
				"baseColorTexture":{
					"index":6
				},
				"metallicFactor":0
			}
		},
		{
			"doubleSided":true,
			"emissiveFactor":[
				0.10000000149011612,
				0.10000000149011612,
				0.10000000149011612
			],
			"emissiveTexture":{
				"index":7
			},
			"name":"spawner",
			"pbrMetallicRoughness":{
				"baseColorTexture":{
					"index":8
				},
				"metallicFactor":0
			}
		},
		{
			"doubleSided":true,
			"name":"Piedra",
			"pbrMetallicRoughness":{
				"baseColorFactor":[
					0.19134917855262756,
					0.19134917855262756,
					0.19134917855262756,
					1
				],
				"metallicFactor":0,
				"roughnessFactor":0.5
			}
		},
		{
			"doubleSided":true,
			"name":"Tela",
			"pbrMetallicRoughness":{
				"baseColorFactor":[
					0.8752569556236267,
					0.43867772817611694,
					0.18531319499015808,
					1
				],
				"metallicFactor":0
			}
		},
		{
			"doubleSided":true,
			"name":"welcome",
			"pbrMetallicRoughness":{
				"baseColorTexture":{
					"index":9
				},
				"metallicFactor":0
			}
		}
	],
	"meshes":[
		{
			"name":"tripo_mesh_9b91b75e-e583-405e-b96c-468b79b5b5e8",
			"primitives":[
				{
					"attributes":{
						"POSITION":0,
						"NORMAL":1,
						"TEXCOORD_0":2
					},
					"indices":3,
					"material":0
				}
			]
		},
		{
			"name":"Cube.024",
			"primitives":[
				{
					"attributes":{
						"POSITION":4,
						"NORMAL":5,
						"TEXCOORD_0":6
					},
					"indices":7
				}
			]
		},
		{
			"name":"tripo_mesh_9b91b75e-e583-405e-b96c-468b79b5b5e8.001",
			"primitives":[
				{
					"attributes":{
						"POSITION":8,
						"NORMAL":9,
						"TEXCOORD_0":10
					},
					"indices":11,
					"material":1
				}
			]
		},
		{
			"name":"Cube.025",
			"primitives":[
				{
					"attributes":{
						"POSITION":12,
						"NORMAL":13,
						"TEXCOORD_0":14
					},
					"indices":7
				}
			]
		},
		{
			"name":"Plane.010",
			"primitives":[
				{
					"attributes":{
						"POSITION":15,
						"NORMAL":16,
						"TEXCOORD_0":17
					},
					"indices":18,
					"material":2
				}
			]
		},
		{
			"name":"Plane.017",
			"primitives":[
				{
					"attributes":{
						"POSITION":19,
						"NORMAL":20,
						"TEXCOORD_0":21
					},
					"indices":22,
					"material":3
				}
			]
		},
		{
			"name":"Plane.048",
			"primitives":[
				{
					"attributes":{
						"POSITION":23,
						"NORMAL":24,
						"TEXCOORD_0":25
					},
					"indices":26,
					"material":4
				}
			]
		},
		{
			"name":"Plane.006",
			"primitives":[
				{
					"attributes":{
						"POSITION":27,
						"NORMAL":28,
						"TEXCOORD_0":29
					},
					"indices":30,
					"material":4
				}
			]
		},
		{
			"name":"Plane.016",
			"primitives":[
				{
					"attributes":{
						"POSITION":31,
						"NORMAL":32,
						"TEXCOORD_0":33
					},
					"indices":34,
					"material":5
				}
			]
		},
		{
			"name":"Plane.019",
			"primitives":[
				{
					"attributes":{
						"POSITION":35,
						"NORMAL":36,
						"TEXCOORD_0":37
					},
					"indices":38
				}
			]
		},
		{
			"name":"Cube",
			"primitives":[
				{
					"attributes":{
						"POSITION":39,
						"NORMAL":40,
						"TEXCOORD_0":41
					},
					"indices":42,
					"material":6
				}
			]
		},
		{
			"name":"Cube.002",
			"primitives":[
				{
					"attributes":{
						"POSITION":43,
						"NORMAL":44,
						"TEXCOORD_0":45
					},
					"indices":46,
					"material":7
				},
				{
					"attributes":{
						"POSITION":47,
						"NORMAL":48,
						"TEXCOORD_0":49
					},
					"indices":50,
					"material":6
				}
			]
		},
		{
			"name":"Plane.014",
			"primitives":[
				{
					"attributes":{
						"POSITION":51,
						"NORMAL":52,
						"TEXCOORD_0":53
					},
					"indices":54,
					"material":6
				}
			]
		},
		{
			"name":"Text.001",
			"primitives":[
				{
					"attributes":{
						"POSITION":55,
						"NORMAL":56,
						"TEXCOORD_0":57
					},
					"indices":58,
					"material":8
				}
			]
		},
		{
			"name":"Cube.010",
			"primitives":[
				{
					"attributes":{
						"POSITION":59,
						"NORMAL":60,
						"TEXCOORD_0":61
					},
					"indices":42,
					"material":6
				}
			]
		},
		{
			"name":"Cube.015",
			"primitives":[
				{
					"attributes":{
						"POSITION":62,
						"NORMAL":63,
						"TEXCOORD_0":64
					},
					"indices":46,
					"material":7
				},
				{
					"attributes":{
						"POSITION":65,
						"NORMAL":66,
						"TEXCOORD_0":67
					},
					"indices":50,
					"material":6
				}
			]
		},
		{
			"name":"Plane.008",
			"primitives":[
				{
					"attributes":{
						"POSITION":68,
						"NORMAL":69,
						"TEXCOORD_0":70
					},
					"indices":54,
					"material":6
				}
			]
		},
		{
			"name":"Text.002",
			"primitives":[
				{
					"attributes":{
						"POSITION":71,
						"NORMAL":72,
						"TEXCOORD_0":73
					},
					"indices":74,
					"material":8
				}
			]
		},
		{
			"name":"Cube.005",
			"primitives":[
				{
					"attributes":{
						"POSITION":75,
						"NORMAL":76,
						"TEXCOORD_0":77
					},
					"indices":78,
					"material":9
				}
			]
		},
		{
			"name":"Cube.006",
			"primitives":[
				{
					"attributes":{
						"POSITION":79,
						"NORMAL":80,
						"TEXCOORD_0":81
					},
					"indices":82,
					"material":9
				}
			]
		},
		{
			"name":"Cube.007",
			"primitives":[
				{
					"attributes":{
						"POSITION":83,
						"NORMAL":84,
						"TEXCOORD_0":85
					},
					"indices":86,
					"material":9
				}
			]
		},
		{
			"name":"Cube.008",
			"primitives":[
				{
					"attributes":{
						"POSITION":87,
						"NORMAL":88,
						"TEXCOORD_0":89
					},
					"indices":90
				}
			]
		},
		{
			"name":"Cube.007",
			"primitives":[
				{
					"attributes":{
						"POSITION":91,
						"NORMAL":92,
						"TEXCOORD_0":93
					},
					"indices":86,
					"material":9
				}
			]
		},
		{
			"name":"Cube.007",
			"primitives":[
				{
					"attributes":{
						"POSITION":94,
						"NORMAL":95,
						"TEXCOORD_0":96
					},
					"indices":86,
					"material":9
				}
			]
		},
		{
			"name":"Cube.007",
			"primitives":[
				{
					"attributes":{
						"POSITION":97,
						"NORMAL":98,
						"TEXCOORD_0":99
					},
					"indices":86,
					"material":9
				}
			]
		},
		{
			"name":"Cube.007",
			"primitives":[
				{
					"attributes":{
						"POSITION":100,
						"NORMAL":101,
						"TEXCOORD_0":102
					},
					"indices":86,
					"material":9
				}
			]
		},
		{
			"name":"mesh.002",
			"primitives":[
				{
					"attributes":{
						"POSITION":103,
						"NORMAL":104
					},
					"indices":105
				}
			]
		},
		{
			"name":"Circle.001",
			"primitives":[
				{
					"attributes":{
						"POSITION":106,
						"NORMAL":107,
						"TEXCOORD_0":108
					},
					"indices":109,
					"material":10
				}
			]
		},
		{
			"name":"Cylinder.005",
			"primitives":[
				{
					"attributes":{
						"POSITION":110,
						"NORMAL":111,
						"TEXCOORD_0":112
					},
					"indices":113
				}
			]
		},
		{
			"name":"Cube.017",
			"primitives":[
				{
					"attributes":{
						"POSITION":114,
						"NORMAL":115,
						"TEXCOORD_0":116
					},
					"indices":117,
					"material":6
				}
			]
		},
		{
			"name":"Plane.011",
			"primitives":[
				{
					"attributes":{
						"POSITION":118,
						"NORMAL":119,
						"TEXCOORD_0":120
					},
					"indices":121,
					"material":11
				}
			]
		},
		{
			"name":"Plane.012",
			"primitives":[
				{
					"attributes":{
						"POSITION":122,
						"NORMAL":123,
						"TEXCOORD_0":124
					},
					"indices":125,
					"material":11
				}
			]
		},
		{
			"name":"Plane.013",
			"primitives":[
				{
					"attributes":{
						"POSITION":126,
						"NORMAL":127,
						"TEXCOORD_0":128
					},
					"indices":129,
					"material":3
				}
			]
		},
		{
			"name":"Cube.017",
			"primitives":[
				{
					"attributes":{
						"POSITION":130,
						"NORMAL":131,
						"TEXCOORD_0":132
					},
					"indices":117,
					"material":6
				}
			]
		},
		{
			"name":"Cube.003",
			"primitives":[
				{
					"attributes":{
						"POSITION":133,
						"NORMAL":134,
						"TEXCOORD_0":135
					},
					"indices":136,
					"material":6
				}
			]
		},
		{
			"name":"Plane.009",
			"primitives":[
				{
					"attributes":{
						"POSITION":137,
						"NORMAL":138,
						"TEXCOORD_0":139
					},
					"indices":140
				}
			]
		},
		{
			"name":"Plane.015",
			"primitives":[
				{
					"attributes":{
						"POSITION":141,
						"NORMAL":142,
						"TEXCOORD_0":143
					},
					"indices":144,
					"material":12
				}
			]
		},
		{
			"name":"Cylinder",
			"primitives":[
				{
					"attributes":{
						"POSITION":145,
						"NORMAL":146,
						"TEXCOORD_0":147
					},
					"indices":148,
					"material":6
				}
			]
		},
		{
			"name":"Cylinder.001",
			"primitives":[
				{
					"attributes":{
						"POSITION":149,
						"NORMAL":150,
						"TEXCOORD_0":151
					},
					"indices":148,
					"material":6
				}
			]
		},
		{
			"name":"Cylinder.002",
			"primitives":[
				{
					"attributes":{
						"POSITION":152,
						"NORMAL":153,
						"TEXCOORD_0":154
					},
					"indices":148,
					"material":6
				}
			]
		},
		{
			"name":"Cylinder.003",
			"primitives":[
				{
					"attributes":{
						"POSITION":155,
						"NORMAL":156,
						"TEXCOORD_0":157
					},
					"indices":148,
					"material":6
				}
			]
		},
		{
			"name":"Cylinder.004",
			"primitives":[
				{
					"attributes":{
						"POSITION":158,
						"NORMAL":159,
						"TEXCOORD_0":160
					},
					"indices":148,
					"material":6
				}
			]
		},
		{
			"name":"Cube.004",
			"primitives":[
				{
					"attributes":{
						"POSITION":161,
						"NORMAL":162,
						"TEXCOORD_0":163
					},
					"indices":164,
					"material":13
				}
			]
		},
		{
			"name":"Cube.022",
			"primitives":[
				{
					"attributes":{
						"POSITION":165,
						"NORMAL":166,
						"TEXCOORD_0":167
					},
					"indices":168
				}
			]
		}
	],
	"textures":[
		{
			"sampler":0,
			"source":0
		},
		{
			"sampler":0,
			"source":1
		},
		{
			"sampler":0,
			"source":2
		},
		{
			"sampler":0,
			"source":3
		},
		{
			"sampler":0,
			"source":4
		},
		{
			"sampler":0,
			"source":5
		},
		{
			"sampler":0,
			"source":5
		},
		{
			"sampler":0,
			"source":6
		},
		{
			"sampler":0,
			"source":7
		},
		{
			"sampler":0,
			"source":8
		}
	],
	"images":[
		{
			"mimeType":"image/jpeg",
			"name":"tripo_glb_basecolor",
			"uri":"textures/tripo_glb_basecolor.jpg"
		},
		{
			"mimeType":"image/jpeg",
			"name":"Fences",
			"uri":"textures/Fences.jpg"
		},
		{
			"mimeType":"image/png",
			"name":"floor",
			"uri":"textures/floor.png"
		},
		{
			"mimeType":"image/png",
			"name":"Grass_Pixel",
			"uri":"textures/Grass_Pixel.png"
		},
		{
			"mimeType":"image/jpeg",
			"name":"floor_stones",
			"uri":"textures/floor_stones.jpg"
		},
		{
			"mimeType":"image/jpeg",
			"name":"Wood",
			"uri":"textures/Wood.jpg"
		},
		{
			"mimeType":"image/jpeg",
			"name":"spawner_E",
			"uri":"textures/spawner_E.jpg"
		},
		{
			"mimeType":"image/jpeg",
			"name":"spawner_BC",
			"uri":"textures/spawner_BC.jpg"
		},
		{
			"mimeType":"image/jpeg",
			"name":"welcome",
			"uri":"textures/welcome.jpg"
		}
	],
	"accessors":[
		{
			"bufferView":0,
			"componentType":5126,
			"count":1357,
			"max":[
				1.125253677368164,
				1.2076213359832764,
				0.23581229150295258
			],
			"min":[
				-1.1037503480911255,
				-0.0011036008363589644,
				-0.28443658351898193
			],
			"type":"VEC3"
		},
		{
			"bufferView":1,
			"componentType":5126,
			"count":1357,
			"type":"VEC3"
		},
		{
			"bufferView":2,
			"componentType":5126,
			"count":1357,
			"type":"VEC2"
		},
		{
			"bufferView":3,
			"componentType":5123,
			"count":2910,
			"type":"SCALAR"
		},
		{
			"bufferView":4,
			"componentType":5126,
			"count":24,
			"max":[
				1.1000611782073975,
				1.2007557153701782,
				0.1759839951992035
			],
			"min":[
				-1.1000611782073975,
				0,
				-0.1759839951992035
			],
			"type":"VEC3"
		},
		{
			"bufferView":5,
			"componentType":5126,
			"count":24,
			"type":"VEC3"
		},
		{
			"bufferView":6,
			"componentType":5126,
			"count":24,
			"type":"VEC2"
		},
		{
			"bufferView":7,
			"componentType":5123,
			"count":36,
			"type":"SCALAR"
		},
		{
			"bufferView":8,
			"componentType":5126,
			"count":1346,
			"max":[
				0.15389257669448853,
				0.738311767578125,
				0.15421301126480103
			],
			"min":[
				-0.1545257717370987,
				0,
				-0.15419772267341614
			],
			"type":"VEC3"
		},
		{
			"bufferView":9,
			"componentType":5126,
			"count":1346,
			"type":"VEC3"
		},
		{
			"bufferView":10,
			"componentType":5126,
			"count":1346,
			"type":"VEC2"
		},
		{
			"bufferView":11,
			"componentType":5123,
			"count":2649,
			"type":"SCALAR"
		},
		{
			"bufferView":12,
			"componentType":5126,
			"count":24,
			"max":[
				0.12998804450035095,
				0.7368909120559692,
				0.13514432311058044
			],
			"min":[
				-0.12998804450035095,
				0,
				-0.13514432311058044
			],
			"type":"VEC3"
		},
		{
			"bufferView":13,
			"componentType":5126,
			"count":24,
			"type":"VEC3"
		},
		{
			"bufferView":14,
			"componentType":5126,
			"count":24,
			"type":"VEC2"
		},
		{
			"bufferView":15,
			"componentType":5126,
			"count":60,
			"max":[
				39.81639862060547,
				1,
				39.56977844238281
			],
			"min":[
				-39.70838165283203,
				0.0025000032037496567,
				-39.46929168701172
			],
			"type":"VEC3"
		},
		{
			"bufferView":16,
			"componentType":5126,
			"count":60,
			"type":"VEC3"
		},
		{
			"bufferView":17,
			"componentType":5126,
			"count":60,
			"type":"VEC2"
		},
		{
			"bufferView":18,
			"componentType":5123,
			"count":234,
			"type":"SCALAR"
		},
		{
			"bufferView":19,
			"componentType":5126,
			"count":46,
			"max":[
				40.038997650146484,
				1,
				39.58626937866211
			],
			"min":[
				-39.93098068237305,
				0.0025000032037496567,
				-39.485782623291016
			],
			"type":"VEC3"
		},
		{
			"bufferView":20,
			"componentType":5126,
			"count":46,
			"type":"VEC3"
		},
		{
			"bufferView":21,
			"componentType":5126,
			"count":46,
			"type":"VEC2"
		},
		{
			"bufferView":22,
			"componentType":5123,
			"count":234,
			"type":"SCALAR"
		},
		{
			"bufferView":23,
			"componentType":5126,
			"count":5124,
			"max":[
				18.587812423706055,
				4.065035820007324,
				17.133668899536133
			],
			"min":[
				-15.869196891784668,
				-0.34030836820602417,
				-15.40523910522461
			],
			"type":"VEC3"
		},
		{
			"bufferView":24,
			"componentType":5126,
			"count":5124,
			"type":"VEC3"
		},
		{
			"bufferView":25,
			"componentType":5126,
			"count":5124,
			"type":"VEC2"
		},
		{
			"bufferView":26,
			"componentType":5123,
			"count":7578,
			"type":"SCALAR"
		},
		{
			"bufferView":27,
			"componentType":5126,
			"count":5124,
			"max":[
				18.587812423706055,
				4.065035820007324,
				17.133668899536133
			],
			"min":[
				-15.869196891784668,
				-0.34030836820602417,
				-15.40523910522461
			],
			"type":"VEC3"
		},
		{
			"bufferView":28,
			"componentType":5126,
			"count":5124,
			"type":"VEC3"
		},
		{
			"bufferView":29,
			"componentType":5126,
			"count":5124,
			"type":"VEC2"
		},
		{
			"bufferView":30,
			"componentType":5123,
			"count":7578,
			"type":"SCALAR"
		},
		{
			"bufferView":31,
			"componentType":5126,
			"count":224,
			"max":[
				6.07419490814209,
				0.15780402719974518,
				1.6648393869400024
			],
			"min":[
				-6.082452297210693,
				-4.6566128730773926e-09,
				-4.629050254821777
			],
			"type":"VEC3"
		},
		{
			"bufferView":32,
			"componentType":5126,
			"count":224,
			"type":"VEC3"
		},
		{
			"bufferView":33,
			"componentType":5126,
			"count":224,
			"type":"VEC2"
		},
		{
			"bufferView":34,
			"componentType":5123,
			"count":924,
			"type":"SCALAR"
		},
		{
			"bufferView":35,
			"componentType":5126,
			"count":224,
			"max":[
				6.029393672943115,
				0.15780402719974518,
				1.6181999444961548
			],
			"min":[
				-6.025896072387695,
				-4.6566128730773926e-09,
				-4.629733085632324
			],
			"type":"VEC3"
		},
		{
			"bufferView":36,
			"componentType":5126,
			"count":224,
			"type":"VEC3"
		},
		{
			"bufferView":37,
			"componentType":5126,
			"count":224,
			"type":"VEC2"
		},
		{
			"bufferView":38,
			"componentType":5123,
			"count":420,
			"type":"SCALAR"
		},
		{
			"bufferView":39,
			"componentType":5126,
			"count":196,
			"max":[
				8.516546249389648,
				28.396953582763672,
				1
			],
			"min":[
				-8.516546249389648,
				-1.7881393432617188e-07,
				-1.000000238418579
			],
			"type":"VEC3"
		},
		{
			"bufferView":40,
			"componentType":5126,
			"count":196,
			"type":"VEC3"
		},
		{
			"bufferView":41,
			"componentType":5126,
			"count":196,
			"type":"VEC2"
		},
		{
			"bufferView":42,
			"componentType":5123,
			"count":444,
			"type":"SCALAR"
		},
		{
			"bufferView":43,
			"componentType":5126,
			"count":8,
			"max":[
				8.011453628540039,
				18.834440231323242,
				0.4223514795303345
			],
			"min":[
				-8.011453628540039,
				3.775615692138672,
				-0.422351598739624
			],
			"type":"VEC3"
		},
		{
			"bufferView":44,
			"componentType":5126,
			"count":8,
			"type":"VEC3"
		},
		{
			"bufferView":45,
			"componentType":5126,
			"count":8,
			"type":"VEC2"
		},
		{
			"bufferView":46,
			"componentType":5123,
			"count":12,
			"type":"SCALAR"
		},
		{
			"bufferView":47,
			"componentType":5126,
			"count":22,
			"max":[
				8.011453628540039,
				27.74797821044922,
				0.4223514795303345
			],
			"min":[
				-8.011453628540039,
				20.610057830810547,
				-0.4223517179489136
			],
			"type":"VEC3"
		},
		{
			"bufferView":48,
			"componentType":5126,
			"count":22,
			"type":"VEC3"
		},
		{
			"bufferView":49,
			"componentType":5126,
			"count":22,
			"type":"VEC2"
		},
		{
			"bufferView":50,
			"componentType":5123,
			"count":54,
			"type":"SCALAR"
		},
		{
			"bufferView":51,
			"componentType":5126,
			"count":48,
			"max":[
				1.815338373184204,
				4.122012138366699,
				0.3166019320487976
			],
			"min":[
				-1.815338373184204,
				0.40000003576278687,
				-0.3166019320487976
			],
			"type":"VEC3"
		},
		{
			"bufferView":52,
			"componentType":5126,
			"count":48,
			"type":"VEC3"
		},
		{
			"bufferView":53,
			"componentType":5126,
			"count":48,
			"type":"VEC2"
		},
		{
			"bufferView":54,
			"componentType":5123,
			"count":72,
			"type":"SCALAR"
		},
		{
			"bufferView":55,
			"componentType":5126,
			"count":3734,
			"max":[
				1.4431955814361572,
				0,
				0.4993395209312439
			],
			"min":[
				-1.4524074792861938,
				0,
				-0.4605943262577057
			],
			"type":"VEC3"
		},
		{
			"bufferView":56,
			"componentType":5126,
			"count":3734,
			"type":"VEC3"
		},
		{
			"bufferView":57,
			"componentType":5126,
			"count":3734,
			"type":"VEC2"
		},
		{
			"bufferView":58,
			"componentType":5123,
			"count":11160,
			"type":"SCALAR"
		},
		{
			"bufferView":59,
			"componentType":5126,
			"count":196,
			"max":[
				8.516546249389648,
				28.396953582763672,
				1
			],
			"min":[
				-8.516546249389648,
				-1.7881393432617188e-07,
				-1.000000238418579
			],
			"type":"VEC3"
		},
		{
			"bufferView":60,
			"componentType":5126,
			"count":196,
			"type":"VEC3"
		},
		{
			"bufferView":61,
			"componentType":5126,
			"count":196,
			"type":"VEC2"
		},
		{
			"bufferView":62,
			"componentType":5126,
			"count":8,
			"max":[
				8.011453628540039,
				18.834440231323242,
				0.4223514795303345
			],
			"min":[
				-8.011453628540039,
				3.775615692138672,
				-0.422351598739624
			],
			"type":"VEC3"
		},
		{
			"bufferView":63,
			"componentType":5126,
			"count":8,
			"type":"VEC3"
		},
		{
			"bufferView":64,
			"componentType":5126,
			"count":8,
			"type":"VEC2"
		},
		{
			"bufferView":65,
			"componentType":5126,
			"count":22,
			"max":[
				8.011453628540039,
				27.74797821044922,
				0.4223514795303345
			],
			"min":[
				-8.011453628540039,
				20.610057830810547,
				-0.4223517179489136
			],
			"type":"VEC3"
		},
		{
			"bufferView":66,
			"componentType":5126,
			"count":22,
			"type":"VEC3"
		},
		{
			"bufferView":67,
			"componentType":5126,
			"count":22,
			"type":"VEC2"
		},
		{
			"bufferView":68,
			"componentType":5126,
			"count":48,
			"max":[
				1.815338373184204,
				4.122012138366699,
				0.3166019320487976
			],
			"min":[
				-1.815338373184204,
				0.40000003576278687,
				-0.3166019320487976
			],
			"type":"VEC3"
		},
		{
			"bufferView":69,
			"componentType":5126,
			"count":48,
			"type":"VEC3"
		},
		{
			"bufferView":70,
			"componentType":5126,
			"count":48,
			"type":"VEC2"
		},
		{
			"bufferView":71,
			"componentType":5126,
			"count":3309,
			"max":[
				1.4431955814361572,
				0,
				0.4993395209312439
			],
			"min":[
				-1.4524074792861938,
				0,
				-0.4605943262577057
			],
			"type":"VEC3"
		},
		{
			"bufferView":72,
			"componentType":5126,
			"count":3309,
			"type":"VEC3"
		},
		{
			"bufferView":73,
			"componentType":5126,
			"count":3309,
			"type":"VEC2"
		},
		{
			"bufferView":74,
			"componentType":5123,
			"count":9873,
			"type":"SCALAR"
		},
		{
			"bufferView":75,
			"componentType":5126,
			"count":72,
			"max":[
				1.1202889680862427,
				0.7051790356636047,
				0.5802025198936462
			],
			"min":[
				-1.1202889680862427,
				0,
				-0.5802025198936462
			],
			"type":"VEC3"
		},
		{
			"bufferView":76,
			"componentType":5126,
			"count":72,
			"type":"VEC3"
		},
		{
			"bufferView":77,
			"componentType":5126,
			"count":72,
			"type":"VEC2"
		},
		{
			"bufferView":78,
			"componentType":5123,
			"count":108,
			"type":"SCALAR"
		},
		{
			"bufferView":79,
			"componentType":5126,
			"count":96,
			"max":[
				1.264855146408081,
				0.8350337743759155,
				0.7534347176551819
			],
			"min":[
				-1.264855146408081,
				0.7052952647209167,
				-0.7534347176551819
			],
			"type":"VEC3"
		},
		{
			"bufferView":80,
			"componentType":5126,
			"count":96,
			"type":"VEC3"
		},
		{
			"bufferView":81,
			"componentType":5126,
			"count":96,
			"type":"VEC2"
		},
		{
			"bufferView":82,
			"componentType":5123,
			"count":144,
			"type":"SCALAR"
		},
		{
			"bufferView":83,
			"componentType":5126,
			"count":96,
			"max":[
				1.2148897647857666,
				0.7283546924591064,
				0.6748033761978149
			],
			"min":[
				-1.2148897647857666,
				-0.07361031323671341,
				-0.6748033761978149
			],
			"type":"VEC3"
		},
		{
			"bufferView":84,
			"componentType":5126,
			"count":96,
			"type":"VEC3"
		},
		{
			"bufferView":85,
			"componentType":5126,
			"count":96,
			"type":"VEC2"
		},
		{
			"bufferView":86,
			"componentType":5123,
			"count":144,
			"type":"SCALAR"
		},
		{
			"bufferView":87,
			"componentType":5126,
			"count":24,
			"max":[
				0.9744545817375183,
				0.6321383714675903,
				0.5802024602890015
			],
			"min":[
				-0.9744545817375183,
				7.450580596923828e-09,
				-0.5802024602890015
			],
			"type":"VEC3"
		},
		{
			"bufferView":88,
			"componentType":5126,
			"count":24,
			"type":"VEC3"
		},
		{
			"bufferView":89,
			"componentType":5126,
			"count":24,
			"type":"VEC2"
		},
		{
			"bufferView":90,
			"componentType":5123,
			"count":36,
			"type":"SCALAR"
		},
		{
			"bufferView":91,
			"componentType":5126,
			"count":96,
			"max":[
				1.2148897647857666,
				0.7283546924591064,
				0.6748033761978149
			],
			"min":[
				-1.2148897647857666,
				-0.07361031323671341,
				-0.6748033761978149
			],
			"type":"VEC3"
		},
		{
			"bufferView":92,
			"componentType":5126,
			"count":96,
			"type":"VEC3"
		},
		{
			"bufferView":93,
			"componentType":5126,
			"count":96,
			"type":"VEC2"
		},
		{
			"bufferView":94,
			"componentType":5126,
			"count":96,
			"max":[
				1.2148897647857666,
				0.7283546924591064,
				0.6748033761978149
			],
			"min":[
				-1.2148897647857666,
				-0.07361031323671341,
				-0.6748033761978149
			],
			"type":"VEC3"
		},
		{
			"bufferView":95,
			"componentType":5126,
			"count":96,
			"type":"VEC3"
		},
		{
			"bufferView":96,
			"componentType":5126,
			"count":96,
			"type":"VEC2"
		},
		{
			"bufferView":97,
			"componentType":5126,
			"count":96,
			"max":[
				1.2148897647857666,
				0.7283546924591064,
				0.6748033761978149
			],
			"min":[
				-1.2148897647857666,
				-0.07361031323671341,
				-0.6748033761978149
			],
			"type":"VEC3"
		},
		{
			"bufferView":98,
			"componentType":5126,
			"count":96,
			"type":"VEC3"
		},
		{
			"bufferView":99,
			"componentType":5126,
			"count":96,
			"type":"VEC2"
		},
		{
			"bufferView":100,
			"componentType":5126,
			"count":96,
			"max":[
				1.2148897647857666,
				0.7283546924591064,
				0.6748033761978149
			],
			"min":[
				-1.2148897647857666,
				-0.07361031323671341,
				-0.6748033761978149
			],
			"type":"VEC3"
		},
		{
			"bufferView":101,
			"componentType":5126,
			"count":96,
			"type":"VEC3"
		},
		{
			"bufferView":102,
			"componentType":5126,
			"count":96,
			"type":"VEC2"
		},
		{
			"bufferView":103,
			"componentType":5126,
			"count":5267,
			"max":[
				0.5195526480674744,
				0.7642555832862854,
				0.5123315453529358
			],
			"min":[
				-0.509026288986206,
				0.03901979327201843,
				-0.5297972559928894
			],
			"type":"VEC3"
		},
		{
			"bufferView":104,
			"componentType":5126,
			"count":5267,
			"type":"VEC3"
		},
		{
			"bufferView":105,
			"componentType":5123,
			"count":5412,
			"type":"SCALAR"
		},
		{
			"bufferView":106,
			"componentType":5126,
			"count":128,
			"max":[
				1.5300037860870361,
				0.2229577898979187,
				1.5300037860870361
			],
			"min":[
				-1.5300037860870361,
				0,
				-1.5300037860870361
			],
			"type":"VEC3"
		},
		{
			"bufferView":107,
			"componentType":5126,
			"count":128,
			"type":"VEC3"
		},
		{
			"bufferView":108,
			"componentType":5126,
			"count":128,
			"type":"VEC2"
		},
		{
			"bufferView":109,
			"componentType":5123,
			"count":666,
			"type":"SCALAR"
		},
		{
			"bufferView":110,
			"componentType":5126,
			"count":96,
			"max":[
				1.8236804008483887,
				0.2197052240371704,
				1.8236804008483887
			],
			"min":[
				-1.8236804008483887,
				0,
				-1.8236804008483887
			],
			"type":"VEC3"
		},
		{
			"bufferView":111,
			"componentType":5126,
			"count":96,
			"type":"VEC3"
		},
		{
			"bufferView":112,
			"componentType":5126,
			"count":96,
			"type":"VEC2"
		},
		{
			"bufferView":113,
			"componentType":5123,
			"count":180,
			"type":"SCALAR"
		},
		{
			"bufferView":114,
			"componentType":5126,
			"count":236,
			"max":[
				1.2103642225265503,
				1.2375080585479736,
				2.1128950119018555
			],
			"min":[
				-1.2103642225265503,
				-0.0363956093788147,
				-0.08389735221862793
			],
			"type":"VEC3"
		},
		{
			"bufferView":115,
			"componentType":5126,
			"count":236,
			"type":"VEC3"
		},
		{
			"bufferView":116,
			"componentType":5126,
			"count":236,
			"type":"VEC2"
		},
		{
			"bufferView":117,
			"componentType":5123,
			"count":360,
			"type":"SCALAR"
		},
		{
			"bufferView":118,
			"componentType":5126,
			"count":44,
			"max":[
				1,
				1,
				2
			],
			"min":[
				-1,
				0,
				0
			],
			"type":"VEC3"
		},
		{
			"bufferView":119,
			"componentType":5126,
			"count":44,
			"type":"VEC3"
		},
		{
			"bufferView":120,
			"componentType":5126,
			"count":44,
			"type":"VEC2"
		},
		{
			"bufferView":121,
			"componentType":5123,
			"count":90,
			"type":"SCALAR"
		},
		{
			"bufferView":122,
			"componentType":5126,
			"count":280,
			"max":[
				1.0085376501083374,
				1.0577689409255981,
				2.0642995834350586
			],
			"min":[
				-1.0086647272109985,
				0.13390174508094788,
				-0.06422434747219086
			],
			"type":"VEC3"
		},
		{
			"bufferView":123,
			"componentType":5126,
			"count":280,
			"type":"VEC3"
		},
		{
			"bufferView":124,
			"componentType":5126,
			"count":280,
			"type":"VEC2"
		},
		{
			"bufferView":125,
			"componentType":5123,
			"count":420,
			"type":"SCALAR"
		},
		{
			"bufferView":126,
			"componentType":5126,
			"count":4,
			"max":[
				1,
				1.0064001083374023,
				2.179805278778076
			],
			"min":[
				-1,
				0.014745920896530151,
				0.005794217810034752
			],
			"type":"VEC3"
		},
		{
			"bufferView":127,
			"componentType":5126,
			"count":4,
			"type":"VEC3"
		},
		{
			"bufferView":128,
			"componentType":5126,
			"count":4,
			"type":"VEC2"
		},
		{
			"bufferView":129,
			"componentType":5123,
			"count":6,
			"type":"SCALAR"
		},
		{
			"bufferView":130,
			"componentType":5126,
			"count":236,
			"max":[
				1.2103642225265503,
				1.2375080585479736,
				2.1128950119018555
			],
			"min":[
				-1.2103642225265503,
				-0.0363956093788147,
				-0.08389735221862793
			],
			"type":"VEC3"
		},
		{
			"bufferView":131,
			"componentType":5126,
			"count":236,
			"type":"VEC3"
		},
		{
			"bufferView":132,
			"componentType":5126,
			"count":236,
			"type":"VEC2"
		},
		{
			"bufferView":133,
			"componentType":5126,
			"count":96,
			"max":[
				-0.3894420862197876,
				2.164120674133301,
				1.5847904682159424
			],
			"min":[
				-3.5561273097991943,
				-0.22984981536865234,
				-1.6095554828643799
			],
			"type":"VEC3"
		},
		{
			"bufferView":134,
			"componentType":5126,
			"count":96,
			"type":"VEC3"
		},
		{
			"bufferView":135,
			"componentType":5126,
			"count":96,
			"type":"VEC2"
		},
		{
			"bufferView":136,
			"componentType":5123,
			"count":144,
			"type":"SCALAR"
		},
		{
			"bufferView":137,
			"componentType":5126,
			"count":18,
			"max":[
				1.5355216264724731,
				2.2209062576293945,
				1.5355216264724731
			],
			"min":[
				-1.5355216264724731,
				0,
				-1.5355216264724731
			],
			"type":"VEC3"
		},
		{
			"bufferView":138,
			"componentType":5126,
			"count":18,
			"type":"VEC3"
		},
		{
			"bufferView":139,
			"componentType":5126,
			"count":18,
			"type":"VEC2"
		},
		{
			"bufferView":140,
			"componentType":5123,
			"count":24,
			"type":"SCALAR"
		},
		{
			"bufferView":141,
			"componentType":5126,
			"count":196,
			"max":[
				1.5,
				2,
				1.5
			],
			"min":[
				-1.5,
				-0.0759824886918068,
				-1.5
			],
			"type":"VEC3"
		},
		{
			"bufferView":142,
			"componentType":5126,
			"count":196,
			"type":"VEC3"
		},
		{
			"bufferView":143,
			"componentType":5126,
			"count":196,
			"type":"VEC2"
		},
		{
			"bufferView":144,
			"componentType":5123,
			"count":600,
			"type":"SCALAR"
		},
		{
			"bufferView":145,
			"componentType":5126,
			"count":34,
			"max":[
				0.13587242364883423,
				0.13587242364883423,
				0.7289977669715881
			],
			"min":[
				-0.13587242364883423,
				-0.13587242364883423,
				-0.7289977669715881
			],
			"type":"VEC3"
		},
		{
			"bufferView":146,
			"componentType":5126,
			"count":34,
			"type":"VEC3"
		},
		{
			"bufferView":147,
			"componentType":5126,
			"count":34,
			"type":"VEC2"
		},
		{
			"bufferView":148,
			"componentType":5123,
			"count":84,
			"type":"SCALAR"
		},
		{
			"bufferView":149,
			"componentType":5126,
			"count":34,
			"max":[
				0.13587242364883423,
				0.13587242364883423,
				0.7289977669715881
			],
			"min":[
				-0.13587242364883423,
				-0.13587242364883423,
				-0.7289977669715881
			],
			"type":"VEC3"
		},
		{
			"bufferView":150,
			"componentType":5126,
			"count":34,
			"type":"VEC3"
		},
		{
			"bufferView":151,
			"componentType":5126,
			"count":34,
			"type":"VEC2"
		},
		{
			"bufferView":152,
			"componentType":5126,
			"count":34,
			"max":[
				0.13587242364883423,
				0.13587242364883423,
				0.7289977669715881
			],
			"min":[
				-0.13587242364883423,
				-0.13587242364883423,
				-0.7289977669715881
			],
			"type":"VEC3"
		},
		{
			"bufferView":153,
			"componentType":5126,
			"count":34,
			"type":"VEC3"
		},
		{
			"bufferView":154,
			"componentType":5126,
			"count":34,
			"type":"VEC2"
		},
		{
			"bufferView":155,
			"componentType":5126,
			"count":34,
			"max":[
				0.13587242364883423,
				0.13587242364883423,
				0.7289977669715881
			],
			"min":[
				-0.13587242364883423,
				-0.13587242364883423,
				-0.7289977669715881
			],
			"type":"VEC3"
		},
		{
			"bufferView":156,
			"componentType":5126,
			"count":34,
			"type":"VEC3"
		},
		{
			"bufferView":157,
			"componentType":5126,
			"count":34,
			"type":"VEC2"
		},
		{
			"bufferView":158,
			"componentType":5126,
			"count":34,
			"max":[
				0.13587242364883423,
				0.13587242364883423,
				0.7289977669715881
			],
			"min":[
				-0.13587242364883423,
				-0.13587242364883423,
				-0.7289977669715881
			],
			"type":"VEC3"
		},
		{
			"bufferView":159,
			"componentType":5126,
			"count":34,
			"type":"VEC3"
		},
		{
			"bufferView":160,
			"componentType":5126,
			"count":34,
			"type":"VEC2"
		},
		{
			"bufferView":161,
			"componentType":5126,
			"count":2016,
			"max":[
				4.9811835289001465,
				7.228969097137451,
				0.6294069290161133
			],
			"min":[
				-4.994564056396484,
				-0.4586285948753357,
				-0.3528722822666168
			],
			"type":"VEC3"
		},
		{
			"bufferView":162,
			"componentType":5126,
			"count":2016,
			"type":"VEC3"
		},
		{
			"bufferView":163,
			"componentType":5126,
			"count":2016,
			"type":"VEC2"
		},
		{
			"bufferView":164,
			"componentType":5123,
			"count":4704,
			"type":"SCALAR"
		},
		{
			"bufferView":165,
			"componentType":5126,
			"count":124,
			"max":[
				4.998027801513672,
				7.228969097137451,
				0.5398440957069397
			],
			"min":[
				-5.00933837890625,
				0,
				-0.3528722822666168
			],
			"type":"VEC3"
		},
		{
			"bufferView":166,
			"componentType":5126,
			"count":124,
			"type":"VEC3"
		},
		{
			"bufferView":167,
			"componentType":5126,
			"count":124,
			"type":"VEC2"
		},
		{
			"bufferView":168,
			"componentType":5123,
			"count":216,
			"type":"SCALAR"
		}
	],
	"bufferViews":[
		{
			"buffer":0,
			"byteLength":16284,
			"byteOffset":0,
			"target":34962
		},
		{
			"buffer":0,
			"byteLength":16284,
			"byteOffset":16284,
			"target":34962
		},
		{
			"buffer":0,
			"byteLength":10856,
			"byteOffset":32568,
			"target":34962
		},
		{
			"buffer":0,
			"byteLength":5820,
			"byteOffset":43424,
			"target":34963
		},
		{
			"buffer":0,
			"byteLength":288,
			"byteOffset":49244,
			"target":34962
		},
		{
			"buffer":0,
			"byteLength":288,
			"byteOffset":49532,
			"target":34962
		},
		{
			"buffer":0,
			"byteLength":192,
			"byteOffset":49820,
			"target":34962
		},
		{
			"buffer":0,
			"byteLength":72,
			"byteOffset":50012,
			"target":34963
		},
		{
			"buffer":0,
			"byteLength":16152,
			"byteOffset":50084,
			"target":34962
		},
		{
			"buffer":0,
			"byteLength":16152,
			"byteOffset":66236,
			"target":34962
		},
		{
			"buffer":0,
			"byteLength":10768,
			"byteOffset":82388,
			"target":34962
		},
		{
			"buffer":0,
			"byteLength":5298,
			"byteOffset":93156,
			"target":34963
		},
		{
			"buffer":0,
			"byteLength":288,
			"byteOffset":98456,
			"target":34962
		},
		{
			"buffer":0,
			"byteLength":288,
			"byteOffset":98744,
			"target":34962
		},
		{
			"buffer":0,
			"byteLength":192,
			"byteOffset":99032,
			"target":34962
		},
		{
			"buffer":0,
			"byteLength":720,
			"byteOffset":99224,
			"target":34962
		},
		{
			"buffer":0,
			"byteLength":720,
			"byteOffset":99944,
			"target":34962
		},
		{
			"buffer":0,
			"byteLength":480,
			"byteOffset":100664,
			"target":34962
		},
		{
			"buffer":0,
			"byteLength":468,
			"byteOffset":101144,
			"target":34963
		},
		{
			"buffer":0,
			"byteLength":552,
			"byteOffset":101612,
			"target":34962
		},
		{
			"buffer":0,
			"byteLength":552,
			"byteOffset":102164,
			"target":34962
		},
		{
			"buffer":0,
			"byteLength":368,
			"byteOffset":102716,
			"target":34962
		},
		{
			"buffer":0,
			"byteLength":468,
			"byteOffset":103084,
			"target":34963
		},
		{
			"buffer":0,
			"byteLength":61488,
			"byteOffset":103552,
			"target":34962
		},
		{
			"buffer":0,
			"byteLength":61488,
			"byteOffset":165040,
			"target":34962
		},
		{
			"buffer":0,
			"byteLength":40992,
			"byteOffset":226528,
			"target":34962
		},
		{
			"buffer":0,
			"byteLength":15156,
			"byteOffset":267520,
			"target":34963
		},
		{
			"buffer":0,
			"byteLength":61488,
			"byteOffset":282676,
			"target":34962
		},
		{
			"buffer":0,
			"byteLength":61488,
			"byteOffset":344164,
			"target":34962
		},
		{
			"buffer":0,
			"byteLength":40992,
			"byteOffset":405652,
			"target":34962
		},
		{
			"buffer":0,
			"byteLength":15156,
			"byteOffset":446644,
			"target":34963
		},
		{
			"buffer":0,
			"byteLength":2688,
			"byteOffset":461800,
			"target":34962
		},
		{
			"buffer":0,
			"byteLength":2688,
			"byteOffset":464488,
			"target":34962
		},
		{
			"buffer":0,
			"byteLength":1792,
			"byteOffset":467176,
			"target":34962
		},
		{
			"buffer":0,
			"byteLength":1848,
			"byteOffset":468968,
			"target":34963
		},
		{
			"buffer":0,
			"byteLength":2688,
			"byteOffset":470816,
			"target":34962
		},
		{
			"buffer":0,
			"byteLength":2688,
			"byteOffset":473504,
			"target":34962
		},
		{
			"buffer":0,
			"byteLength":1792,
			"byteOffset":476192,
			"target":34962
		},
		{
			"buffer":0,
			"byteLength":840,
			"byteOffset":477984,
			"target":34963
		},
		{
			"buffer":0,
			"byteLength":2352,
			"byteOffset":478824,
			"target":34962
		},
		{
			"buffer":0,
			"byteLength":2352,
			"byteOffset":481176,
			"target":34962
		},
		{
			"buffer":0,
			"byteLength":1568,
			"byteOffset":483528,
			"target":34962
		},
		{
			"buffer":0,
			"byteLength":888,
			"byteOffset":485096,
			"target":34963
		},
		{
			"buffer":0,
			"byteLength":96,
			"byteOffset":485984,
			"target":34962
		},
		{
			"buffer":0,
			"byteLength":96,
			"byteOffset":486080,
			"target":34962
		},
		{
			"buffer":0,
			"byteLength":64,
			"byteOffset":486176,
			"target":34962
		},
		{
			"buffer":0,
			"byteLength":24,
			"byteOffset":486240,
			"target":34963
		},
		{
			"buffer":0,
			"byteLength":264,
			"byteOffset":486264,
			"target":34962
		},
		{
			"buffer":0,
			"byteLength":264,
			"byteOffset":486528,
			"target":34962
		},
		{
			"buffer":0,
			"byteLength":176,
			"byteOffset":486792,
			"target":34962
		},
		{
			"buffer":0,
			"byteLength":108,
			"byteOffset":486968,
			"target":34963
		},
		{
			"buffer":0,
			"byteLength":576,
			"byteOffset":487076,
			"target":34962
		},
		{
			"buffer":0,
			"byteLength":576,
			"byteOffset":487652,
			"target":34962
		},
		{
			"buffer":0,
			"byteLength":384,
			"byteOffset":488228,
			"target":34962
		},
		{
			"buffer":0,
			"byteLength":144,
			"byteOffset":488612,
			"target":34963
		},
		{
			"buffer":0,
			"byteLength":44808,
			"byteOffset":488756,
			"target":34962
		},
		{
			"buffer":0,
			"byteLength":44808,
			"byteOffset":533564,
			"target":34962
		},
		{
			"buffer":0,
			"byteLength":29872,
			"byteOffset":578372,
			"target":34962
		},
		{
			"buffer":0,
			"byteLength":22320,
			"byteOffset":608244,
			"target":34963
		},
		{
			"buffer":0,
			"byteLength":2352,
			"byteOffset":630564,
			"target":34962
		},
		{
			"buffer":0,
			"byteLength":2352,
			"byteOffset":632916,
			"target":34962
		},
		{
			"buffer":0,
			"byteLength":1568,
			"byteOffset":635268,
			"target":34962
		},
		{
			"buffer":0,
			"byteLength":96,
			"byteOffset":636836,
			"target":34962
		},
		{
			"buffer":0,
			"byteLength":96,
			"byteOffset":636932,
			"target":34962
		},
		{
			"buffer":0,
			"byteLength":64,
			"byteOffset":637028,
			"target":34962
		},
		{
			"buffer":0,
			"byteLength":264,
			"byteOffset":637092,
			"target":34962
		},
		{
			"buffer":0,
			"byteLength":264,
			"byteOffset":637356,
			"target":34962
		},
		{
			"buffer":0,
			"byteLength":176,
			"byteOffset":637620,
			"target":34962
		},
		{
			"buffer":0,
			"byteLength":576,
			"byteOffset":637796,
			"target":34962
		},
		{
			"buffer":0,
			"byteLength":576,
			"byteOffset":638372,
			"target":34962
		},
		{
			"buffer":0,
			"byteLength":384,
			"byteOffset":638948,
			"target":34962
		},
		{
			"buffer":0,
			"byteLength":39708,
			"byteOffset":639332,
			"target":34962
		},
		{
			"buffer":0,
			"byteLength":39708,
			"byteOffset":679040,
			"target":34962
		},
		{
			"buffer":0,
			"byteLength":26472,
			"byteOffset":718748,
			"target":34962
		},
		{
			"buffer":0,
			"byteLength":19746,
			"byteOffset":745220,
			"target":34963
		},
		{
			"buffer":0,
			"byteLength":864,
			"byteOffset":764968,
			"target":34962
		},
		{
			"buffer":0,
			"byteLength":864,
			"byteOffset":765832,
			"target":34962
		},
		{
			"buffer":0,
			"byteLength":576,
			"byteOffset":766696,
			"target":34962
		},
		{
			"buffer":0,
			"byteLength":216,
			"byteOffset":767272,
			"target":34963
		},
		{
			"buffer":0,
			"byteLength":1152,
			"byteOffset":767488,
			"target":34962
		},
		{
			"buffer":0,
			"byteLength":1152,
			"byteOffset":768640,
			"target":34962
		},
		{
			"buffer":0,
			"byteLength":768,
			"byteOffset":769792,
			"target":34962
		},
		{
			"buffer":0,
			"byteLength":288,
			"byteOffset":770560,
			"target":34963
		},
		{
			"buffer":0,
			"byteLength":1152,
			"byteOffset":770848,
			"target":34962
		},
		{
			"buffer":0,
			"byteLength":1152,
			"byteOffset":772000,
			"target":34962
		},
		{
			"buffer":0,
			"byteLength":768,
			"byteOffset":773152,
			"target":34962
		},
		{
			"buffer":0,
			"byteLength":288,
			"byteOffset":773920,
			"target":34963
		},
		{
			"buffer":0,
			"byteLength":288,
			"byteOffset":774208,
			"target":34962
		},
		{
			"buffer":0,
			"byteLength":288,
			"byteOffset":774496,
			"target":34962
		},
		{
			"buffer":0,
			"byteLength":192,
			"byteOffset":774784,
			"target":34962
		},
		{
			"buffer":0,
			"byteLength":72,
			"byteOffset":774976,
			"target":34963
		},
		{
			"buffer":0,
			"byteLength":1152,
			"byteOffset":775048,
			"target":34962
		},
		{
			"buffer":0,
			"byteLength":1152,
			"byteOffset":776200,
			"target":34962
		},
		{
			"buffer":0,
			"byteLength":768,
			"byteOffset":777352,
			"target":34962
		},
		{
			"buffer":0,
			"byteLength":1152,
			"byteOffset":778120,
			"target":34962
		},
		{
			"buffer":0,
			"byteLength":1152,
			"byteOffset":779272,
			"target":34962
		},
		{
			"buffer":0,
			"byteLength":768,
			"byteOffset":780424,
			"target":34962
		},
		{
			"buffer":0,
			"byteLength":1152,
			"byteOffset":781192,
			"target":34962
		},
		{
			"buffer":0,
			"byteLength":1152,
			"byteOffset":782344,
			"target":34962
		},
		{
			"buffer":0,
			"byteLength":768,
			"byteOffset":783496,
			"target":34962
		},
		{
			"buffer":0,
			"byteLength":1152,
			"byteOffset":784264,
			"target":34962
		},
		{
			"buffer":0,
			"byteLength":1152,
			"byteOffset":785416,
			"target":34962
		},
		{
			"buffer":0,
			"byteLength":768,
			"byteOffset":786568,
			"target":34962
		},
		{
			"buffer":0,
			"byteLength":63204,
			"byteOffset":787336,
			"target":34962
		},
		{
			"buffer":0,
			"byteLength":63204,
			"byteOffset":850540,
			"target":34962
		},
		{
			"buffer":0,
			"byteLength":10824,
			"byteOffset":913744,
			"target":34963
		},
		{
			"buffer":0,
			"byteLength":1536,
			"byteOffset":924568,
			"target":34962
		},
		{
			"buffer":0,
			"byteLength":1536,
			"byteOffset":926104,
			"target":34962
		},
		{
			"buffer":0,
			"byteLength":1024,
			"byteOffset":927640,
			"target":34962
		},
		{
			"buffer":0,
			"byteLength":1332,
			"byteOffset":928664,
			"target":34963
		},
		{
			"buffer":0,
			"byteLength":1152,
			"byteOffset":929996,
			"target":34962
		},
		{
			"buffer":0,
			"byteLength":1152,
			"byteOffset":931148,
			"target":34962
		},
		{
			"buffer":0,
			"byteLength":768,
			"byteOffset":932300,
			"target":34962
		},
		{
			"buffer":0,
			"byteLength":360,
			"byteOffset":933068,
			"target":34963
		},
		{
			"buffer":0,
			"byteLength":2832,
			"byteOffset":933428,
			"target":34962
		},
		{
			"buffer":0,
			"byteLength":2832,
			"byteOffset":936260,
			"target":34962
		},
		{
			"buffer":0,
			"byteLength":1888,
			"byteOffset":939092,
			"target":34962
		},
		{
			"buffer":0,
			"byteLength":720,
			"byteOffset":940980,
			"target":34963
		},
		{
			"buffer":0,
			"byteLength":528,
			"byteOffset":941700,
			"target":34962
		},
		{
			"buffer":0,
			"byteLength":528,
			"byteOffset":942228,
			"target":34962
		},
		{
			"buffer":0,
			"byteLength":352,
			"byteOffset":942756,
			"target":34962
		},
		{
			"buffer":0,
			"byteLength":180,
			"byteOffset":943108,
			"target":34963
		},
		{
			"buffer":0,
			"byteLength":3360,
			"byteOffset":943288,
			"target":34962
		},
		{
			"buffer":0,
			"byteLength":3360,
			"byteOffset":946648,
			"target":34962
		},
		{
			"buffer":0,
			"byteLength":2240,
			"byteOffset":950008,
			"target":34962
		},
		{
			"buffer":0,
			"byteLength":840,
			"byteOffset":952248,
			"target":34963
		},
		{
			"buffer":0,
			"byteLength":48,
			"byteOffset":953088,
			"target":34962
		},
		{
			"buffer":0,
			"byteLength":48,
			"byteOffset":953136,
			"target":34962
		},
		{
			"buffer":0,
			"byteLength":32,
			"byteOffset":953184,
			"target":34962
		},
		{
			"buffer":0,
			"byteLength":12,
			"byteOffset":953216,
			"target":34963
		},
		{
			"buffer":0,
			"byteLength":2832,
			"byteOffset":953228,
			"target":34962
		},
		{
			"buffer":0,
			"byteLength":2832,
			"byteOffset":956060,
			"target":34962
		},
		{
			"buffer":0,
			"byteLength":1888,
			"byteOffset":958892,
			"target":34962
		},
		{
			"buffer":0,
			"byteLength":1152,
			"byteOffset":960780,
			"target":34962
		},
		{
			"buffer":0,
			"byteLength":1152,
			"byteOffset":961932,
			"target":34962
		},
		{
			"buffer":0,
			"byteLength":768,
			"byteOffset":963084,
			"target":34962
		},
		{
			"buffer":0,
			"byteLength":288,
			"byteOffset":963852,
			"target":34963
		},
		{
			"buffer":0,
			"byteLength":216,
			"byteOffset":964140,
			"target":34962
		},
		{
			"buffer":0,
			"byteLength":216,
			"byteOffset":964356,
			"target":34962
		},
		{
			"buffer":0,
			"byteLength":144,
			"byteOffset":964572,
			"target":34962
		},
		{
			"buffer":0,
			"byteLength":48,
			"byteOffset":964716,
			"target":34963
		},
		{
			"buffer":0,
			"byteLength":2352,
			"byteOffset":964764,
			"target":34962
		},
		{
			"buffer":0,
			"byteLength":2352,
			"byteOffset":967116,
			"target":34962
		},
		{
			"buffer":0,
			"byteLength":1568,
			"byteOffset":969468,
			"target":34962
		},
		{
			"buffer":0,
			"byteLength":1200,
			"byteOffset":971036,
			"target":34963
		},
		{
			"buffer":0,
			"byteLength":408,
			"byteOffset":972236,
			"target":34962
		},
		{
			"buffer":0,
			"byteLength":408,
			"byteOffset":972644,
			"target":34962
		},
		{
			"buffer":0,
			"byteLength":272,
			"byteOffset":973052,
			"target":34962
		},
		{
			"buffer":0,
			"byteLength":168,
			"byteOffset":973324,
			"target":34963
		},
		{
			"buffer":0,
			"byteLength":408,
			"byteOffset":973492,
			"target":34962
		},
		{
			"buffer":0,
			"byteLength":408,
			"byteOffset":973900,
			"target":34962
		},
		{
			"buffer":0,
			"byteLength":272,
			"byteOffset":974308,
			"target":34962
		},
		{
			"buffer":0,
			"byteLength":408,
			"byteOffset":974580,
			"target":34962
		},
		{
			"buffer":0,
			"byteLength":408,
			"byteOffset":974988,
			"target":34962
		},
		{
			"buffer":0,
			"byteLength":272,
			"byteOffset":975396,
			"target":34962
		},
		{
			"buffer":0,
			"byteLength":408,
			"byteOffset":975668,
			"target":34962
		},
		{
			"buffer":0,
			"byteLength":408,
			"byteOffset":976076,
			"target":34962
		},
		{
			"buffer":0,
			"byteLength":272,
			"byteOffset":976484,
			"target":34962
		},
		{
			"buffer":0,
			"byteLength":408,
			"byteOffset":976756,
			"target":34962
		},
		{
			"buffer":0,
			"byteLength":408,
			"byteOffset":977164,
			"target":34962
		},
		{
			"buffer":0,
			"byteLength":272,
			"byteOffset":977572,
			"target":34962
		},
		{
			"buffer":0,
			"byteLength":24192,
			"byteOffset":977844,
			"target":34962
		},
		{
			"buffer":0,
			"byteLength":24192,
			"byteOffset":1002036,
			"target":34962
		},
		{
			"buffer":0,
			"byteLength":16128,
			"byteOffset":1026228,
			"target":34962
		},
		{
			"buffer":0,
			"byteLength":9408,
			"byteOffset":1042356,
			"target":34963
		},
		{
			"buffer":0,
			"byteLength":1488,
			"byteOffset":1051764,
			"target":34962
		},
		{
			"buffer":0,
			"byteLength":1488,
			"byteOffset":1053252,
			"target":34962
		},
		{
			"buffer":0,
			"byteLength":992,
			"byteOffset":1054740,
			"target":34962
		},
		{
			"buffer":0,
			"byteLength":432,
			"byteOffset":1055732,
			"target":34963
		}
	],
	"samplers":[
		{
			"magFilter":9729,
			"minFilter":9987
		}
	],
	"buffers":[
		{
			"byteLength":1056164,
			"uri":"camp.bin"
		}
	]
}
