{
	"asset":{
		"generator":"Khronos glTF Blender I/O v5.2.39",
		"version":"2.0"
	},
	"scene":0,
	"scenes":[
		{
			"name":"Pine",
			"nodes":[
				0,
				1
			]
		}
	],
	"nodes":[
		{
			"mesh":0,
			"name":"Pine.061",
			"scale":[
				2,
				3,
				2
			]
		},
		{
			"mesh":1,
			"name":"Pine_collider",
			"scale":[
				2,
				3,
				2
			]
		}
	],
	"materials":[
		{
			"doubleSided":true,
			"name":"Pine",
			"pbrMetallicRoughness":{
				"baseColorTexture":{
					"index":0
				},
				"metallicFactor":0
			}
		}
	],
	"meshes":[
		{
			"name":"Cone.004",
			"primitives":[
				{
					"attributes":{
						"POSITION":0,
						"NORMAL":1,
						"TEXCOORD_0":2
					},
					"indices":3,
					"material":0
				}
			]
		},
		{
			"name":"Cone.009",
			"primitives":[
				{
					"attributes":{
						"POSITION":4,
						"NORMAL":5,
						"TEXCOORD_0":6
					},
					"indices":3,
					"material":0
				}
			]
		}
	],
	"textures":[
		{
			"sampler":0,
			"source":0
		}
	],
	"images":[
		{
			"mimeType":"image/jpeg",
			"name":"pine",
			"uri":"textures/pine.jpg"
		}
	],
	"accessors":[
		{
			"bufferView":0,
			"componentType":5126,
			"count":123,
			"max":[
				1.0879533290863037,
				3.5699191093444824,
				1.0879533290863037
			],
			"min":[
				-1.0879533290863037,
				-2.384185791015625e-07,
				-1.0879533290863037
			],
			"type":"VEC3"
		},
		{
			"bufferView":1,
			"componentType":5126,
			"count":123,
			"type":"VEC3"
		},
		{
			"bufferView":2,
			"componentType":5126,
			"count":123,
			"type":"VEC2"
		},
		{
			"bufferView":3,
			"componentType":5123,
			"count":384,
			"type":"SCALAR"
		},
		{
			"bufferView":4,
			"componentType":5126,
			"count":123,
			"max":[
				1.0879533290863037,
				3.5699191093444824,
				1.0879533290863037
			],
			"min":[
				-1.0879533290863037,
				-2.384185791015625e-07,
				-1.0879533290863037
			],
			"type":"VEC3"
		},
		{
			"bufferView":5,
			"componentType":5126,
			"count":123,
			"type":"VEC3"
		},
		{
			"bufferView":6,
			"componentType":5126,
			"count":123,
			"type":"VEC2"
		}
	],
	"bufferViews":[
		{
			"buffer":0,
			"byteLength":1476,
			"byteOffset":0,
			"target":34962
		},
		{
			"buffer":0,
			"byteLength":1476,
			"byteOffset":1476,
			"target":34962
		},
		{
			"buffer":0,
			"byteLength":984,
			"byteOffset":2952,
			"target":34962
		},
		{
			"buffer":0,
			"byteLength":768,
			"byteOffset":3936,
			"target":34963
		},
		{
			"buffer":0,
			"byteLength":1476,
			"byteOffset":4704,
			"target":34962
		},
		{
			"buffer":0,
			"byteLength":1476,
			"byteOffset":6180,
			"target":34962
		},
		{
			"buffer":0,
			"byteLength":984,
			"byteOffset":7656,
			"target":34962
		}
	],
	"samplers":[
		{
			"magFilter":9729,
			"minFilter":9987
		}
	],
	"buffers":[
		{
			"byteLength":8640,
			"uri":"pine.bin"
		}
	]
}
