{
	"asset":{
		"generator":"Khronos glTF Blender I/O v4.4.56",
		"version":"2.0"
	},
	"scene":0,
	"scenes":[
		{
			"name":"Whoosh",
			"nodes":[
				3
			]
		}
	],
	"nodes":[
		{
			"name":"Whoosh",
			"rotation":[
				-0.7071067690849304,
				7.850462159063936e-17,
				7.850462159063936e-17,
				0.7071067690849304
			]
		},
		{
			"children":[
				0
			],
			"name":"Root"
		},
		{
			"mesh":0,
			"name":"Whoosh_Mesh",
			"skin":0
		},
		{
			"children":[
				2,
				1
			],
			"name":"Whoosh_Armature"
		}
	],
	"animations":[
		{
			"channels":[
				{
					"sampler":0,
					"target":{
						"node":1,
						"path":"translation"
					}
				},
				{
					"sampler":1,
					"target":{
						"node":1,
						"path":"rotation"
					}
				},
				{
					"sampler":2,
					"target":{
						"node":1,
						"path":"scale"
					}
				},
				{
					"sampler":3,
					"target":{
						"node":0,
						"path":"translation"
					}
				},
				{
					"sampler":4,
					"target":{
						"node":0,
						"path":"rotation"
					}
				},
				{
					"sampler":5,
					"target":{
						"node":0,
						"path":"scale"
					}
				}
			],
			"name":"Portal_ArmatureAction",
			"samplers":[
				{
					"input":7,
					"interpolation":"STEP",
					"output":8
				},
				{
					"input":7,
					"interpolation":"STEP",
					"output":9
				},
				{
					"input":7,
					"interpolation":"STEP",
					"output":10
				},
				{
					"input":7,
					"interpolation":"STEP",
					"output":11
				},
				{
					"input":7,
					"interpolation":"STEP",
					"output":12
				},
				{
					"input":7,
					"interpolation":"STEP",
					"output":13
				}
			]
		},
		{
			"channels":[
				{
					"sampler":0,
					"target":{
						"node":1,
						"path":"translation"
					}
				},
				{
					"sampler":1,
					"target":{
						"node":1,
						"path":"rotation"
					}
				},
				{
					"sampler":2,
					"target":{
						"node":1,
						"path":"scale"
					}
				},
				{
					"sampler":3,
					"target":{
						"node":0,
						"path":"translation"
					}
				},
				{
					"sampler":4,
					"target":{
						"node":0,
						"path":"rotation"
					}
				},
				{
					"sampler":5,
					"target":{
						"node":0,
						"path":"scale"
					}
				}
			],
			"name":"Whoosh",
			"samplers":[
				{
					"input":14,
					"interpolation":"LINEAR",
					"output":15
				},
				{
					"input":16,
					"interpolation":"STEP",
					"output":17
				},
				{
					"input":14,
					"interpolation":"LINEAR",
					"output":18
				},
				{
					"input":14,
					"interpolation":"LINEAR",
					"output":19
				},
				{
					"input":14,
					"interpolation":"LINEAR",
					"output":20
				},
				{
					"input":14,
					"interpolation":"LINEAR",
					"output":21
				}
			]
		}
	],
	"materials":[
		{
			"alphaMode":"BLEND",
			"emissiveFactor":[
				1,
				1,
				1
			],
			"emissiveTexture":{
				"index":0
			},
			"name":"Whoosh",
			"pbrMetallicRoughness":{
				"baseColorTexture":{
					"index":1
				},
				"metallicFactor":0,
				"roughnessFactor":0.5
			}
		}
	],
	"meshes":[
		{
			"name":"Cylinder.001",
			"primitives":[
				{
					"attributes":{
						"POSITION":0,
						"NORMAL":1,
						"TEXCOORD_0":2,
						"JOINTS_0":3,
						"WEIGHTS_0":4
					},
					"indices":5,
					"material":0
				}
			]
		}
	],
	"textures":[
		{
			"sampler":0,
			"source":0
		},
		{
			"sampler":0,
			"source":0
		}
	],
	"images":[
		{
			"mimeType":"image/png",
			"name":"Whoosh",
			"uri":"textures/Whoosh.png"
		}
	],
	"skins":[
		{
			"inverseBindMatrices":6,
			"joints":[
				1,
				0
			],
			"name":"Whoosh_Armature"
		}
	],
	"accessors":[
		{
			"bufferView":0,
			"componentType":5126,
			"count":34,
			"max":[
				1,
				2,
				1
			],
			"min":[
				-1,
				0,
				-1
			],
			"type":"VEC3"
		},
		{
			"bufferView":1,
			"componentType":5126,
			"count":34,
			"type":"VEC3"
		},
		{
			"bufferView":2,
			"componentType":5126,
			"count":34,
			"type":"VEC2"
		},
		{
			"bufferView":3,
			"componentType":5121,
			"count":34,
			"type":"VEC4"
		},
		{
			"bufferView":4,
			"componentType":5126,
			"count":34,
			"type":"VEC4"
		},
		{
			"bufferView":5,
			"componentType":5123,
			"count":96,
			"type":"SCALAR"
		},
		{
			"bufferView":6,
			"componentType":5126,
			"count":2,
			"type":"MAT4"
		},
		{
			"bufferView":7,
			"componentType":5126,
			"count":2,
			"max":[
				2.5
			],
			"min":[
				0.041666666666666664
			],
			"type":"SCALAR"
		},
		{
			"bufferView":8,
			"componentType":5126,
			"count":2,
			"type":"VEC3"
		},
		{
			"bufferView":9,
			"componentType":5126,
			"count":2,
			"type":"VEC4"
		},
		{
			"bufferView":10,
			"componentType":5126,
			"count":2,
			"type":"VEC3"
		},
		{
			"bufferView":11,
			"componentType":5126,
			"count":2,
			"type":"VEC3"
		},
		{
			"bufferView":12,
			"componentType":5126,
			"count":2,
			"type":"VEC4"
		},
		{
			"bufferView":13,
			"componentType":5126,
			"count":2,
			"type":"VEC3"
		},
		{
			"bufferView":14,
			"componentType":5126,
			"count":19,
			"max":[
				0.7916666666666666
			],
			"min":[
				0.041666666666666664
			],
			"type":"SCALAR"
		},
		{
			"bufferView":15,
			"componentType":5126,
			"count":19,
			"type":"VEC3"
		},
		{
			"bufferView":16,
			"componentType":5126,
			"count":2,
			"max":[
				0.7916666666666666
			],
			"min":[
				0.041666666666666664
			],
			"type":"SCALAR"
		},
		{
			"bufferView":17,
			"componentType":5126,
			"count":2,
			"type":"VEC4"
		},
		{
			"bufferView":18,
			"componentType":5126,
			"count":19,
			"type":"VEC3"
		},
		{
			"bufferView":19,
			"componentType":5126,
			"count":19,
			"type":"VEC3"
		},
		{
			"bufferView":20,
			"componentType":5126,
			"count":19,
			"type":"VEC4"
		},
		{
			"bufferView":21,
			"componentType":5126,
			"count":19,
			"type":"VEC3"
		}
	],
	"bufferViews":[
		{
			"buffer":0,
			"byteLength":408,
			"byteOffset":0,
			"target":34962
		},
		{
			"buffer":0,
			"byteLength":408,
			"byteOffset":408,
			"target":34962
		},
		{
			"buffer":0,
			"byteLength":272,
			"byteOffset":816,
			"target":34962
		},
		{
			"buffer":0,
			"byteLength":136,
			"byteOffset":1088,
			"target":34962
		},
		{
			"buffer":0,
			"byteLength":544,
			"byteOffset":1224,
			"target":34962
		},
		{
			"buffer":0,
			"byteLength":192,
			"byteOffset":1768,
			"target":34963
		},
		{
			"buffer":0,
			"byteLength":128,
			"byteOffset":1960
		},
		{
			"buffer":0,
			"byteLength":8,
			"byteOffset":2088
		},
		{
			"buffer":0,
			"byteLength":24,
			"byteOffset":2096
		},
		{
			"buffer":0,
			"byteLength":32,
			"byteOffset":2120
		},
		{
			"buffer":0,
			"byteLength":24,
			"byteOffset":2152
		},
		{
			"buffer":0,
			"byteLength":24,
			"byteOffset":2176
		},
		{
			"buffer":0,
			"byteLength":32,
			"byteOffset":2200
		},
		{
			"buffer":0,
			"byteLength":24,
			"byteOffset":2232
		},
		{
			"buffer":0,
			"byteLength":76,
			"byteOffset":2256
		},
		{
			"buffer":0,
			"byteLength":228,
			"byteOffset":2332
		},
		{
			"buffer":0,
			"byteLength":8,
			"byteOffset":2560
		},
		{
			"buffer":0,
			"byteLength":32,
			"byteOffset":2568
		},
		{
			"buffer":0,
			"byteLength":228,
			"byteOffset":2600
		},
		{
			"buffer":0,
			"byteLength":228,
			"byteOffset":2828
		},
		{
			"buffer":0,
			"byteLength":304,
			"byteOffset":3056
		},
		{
			"buffer":0,
			"byteLength":228,
			"byteOffset":3360
		}
	],
	"samplers":[
		{
			"magFilter":9729,
			"minFilter":9987
		}
	],
	"buffers":[
		{
			"byteLength":3588,
			"uri":"whoosh.bin"
		}
	]
}
